<?xml version="1.0" encoding="UTF-8"?>
<svg width="1200pt" height="1200pt" version="1.1" viewBox="0 0 1200 1200" xmlns="http://www.w3.org/2000/svg">
 <path d="m961.2 701.4-212.88-396.6c-19.18-36.051-50.828-63.883-89.039-78.293-38.207-14.41-80.355-14.41-118.56 0-38.211 14.41-69.859 42.242-89.039 78.293l-212.88 396.6c-20.965 39.168-27.695 84.391-19.051 127.96s32.133 82.801 66.457 111c34.328 28.195 77.371 43.617 121.79 43.637h5.7617c18.27-0.011719 36.449-2.5977 54-7.6797 47.059-13.648 91.625-34.758 132-62.52 40.371 27.766 84.938 48.875 132 62.52 17.547 5.082 35.727 7.668 54 7.6797h6.2383c44.422-0.019531 87.465-15.441 121.79-43.637 34.324-28.199 57.812-67.426 66.457-111s1.9141-88.797-19.051-127.96m-361.2 86.043c-30.961-34.801-48-72-48-103.44 0-24 8.1602-32.16 10.801-34.801 10.145-8.3711 22.844-13.031 36-13.199h2.1602c13.152 0.16797 25.855 4.8281 36 13.199 2.6406 2.6406 10.801 10.801 10.801 34.801 0 31.32-17.039 68.641-48 103.44m192.24 100.56h-5.7617c-9.2578-0.035156-18.469-1.3672-27.359-3.9609-29.395-8.4414-57.613-20.535-84-36 43.32-50.039 69.121-107.52 69.121-164.04 1.6445-38.762-12.922-76.453-40.199-104.04-28.422-25.738-65.398-39.988-103.74-39.988-38.34 0-75.316 14.25-103.74 39.988-27.32 27.562-41.93 65.262-40.32 104.04 0 56.52 25.801 114 69.359 163.92-26.383 15.469-54.602 27.562-84 36-8.8906 2.5898-18.098 3.9258-27.359 3.957h-6c-33.578-0.25391-64.582-18.039-81.758-46.895-17.176-28.855-18.027-64.586-2.2422-94.223l212.28-396.6c8.168-15.598 21.77-27.66 38.23-33.906 16.457-6.2461 34.637-6.2461 51.098 0s30.062 18.309 38.23 33.906l212.76 396.72c15.832 29.734 14.922 65.59-2.3984 94.48-17.32 28.895-48.516 46.594-82.203 46.641"/>
</svg>
